# xmcd
#
# Track frame offsets:
#	150
#	13125
#	23065
#	31265
#	42000
#	52050
#	65690
#	79075
#	92770
#	104322
#	116325
#	128622
#	140310
#	151340
#	164232
#	174155
#	185250
#	195002
#
# Disc length: 2755 seconds
#
# Revision: 0
# Processed by: cddbd v1.5.2PL0 Copyright (c) Steve Scherf et al.
# Submitted via: audiograbber 1.83.01
#
DISCID=de0ac112
DTITLE=COUNTRY DE LUXE - Selection Of Country CD 1-2
DYEAR=1995
DGENRE=Country
TTITLE0=KENNY ROGERS - Ruby Don't Take Your Love To Town
TTITLE1=JOHNNY CASH - Hey Porter
TTITLE2=WILLIE NELSON - Things To Remember
TTITLE3=PATSY CLINE - I Can See An Angel
TTITLE4=DAVE DUDLEY - Oh Lonesome Me
TTITLE5=LYNN ANDERSON - Rose Garden
TTITLE6=PATTI PAGE - Tennessee Waltz
TTITLE7=CARL PERKINS - Every Road
TTITLE8=FREDDY FENDER - Before The Next Teardrop Falls
TTITLE9=RAY CHARLES - Together Again
TTITLE10=NANCY SINATRA - These Boots Are Made For Walking
TTITLE11=FRANKIE LANE - Mule Train
TTITLE12=GUY MITCHELL - Singin' The Blues
TTITLE13=FARON YOUNG - I'm A Free Man Now
TTITLE14=HANK LOCKLIN - Please Help Me I'm Fallin'
TTITLE15=RICK NELSON - Bright Lights And Country Music
TTITLE16=DOLLY PARTON - Release Me
TTITLE17=TAMMY WYNETTE - Stand By Your Man
EXTD=YEAR: 1995
EXTT0=
EXTT1=
EXTT2=
EXTT3=
EXTT4=
EXTT5=
EXTT6=
EXTT7=
EXTT8=
EXTT9=
EXTT10=
EXTT11=
EXTT12=
EXTT13=
EXTT14=
EXTT15=
EXTT16=
EXTT17=
PLAYORDER=
